<svg xmlns="http://www.w3.org/2000/svg" version="1.1" xmlnsXlink="http://www.w3.org/1999/xlink" xmlnsSvgjs="http://svgjs.com/svgjs" width="1440" height="560" preserveAspectRatio="none" viewBox="0 0 1440 560">
    <g mask="url(&quot;#SvgjsMask1023&quot;)" fill="none">
        <rect width="1440" height="560" x="0" y="0" fill="#0e2a47"></rect>
        <path d="M1269.3505424898995 457.9324988781716L1308.303688853162 366.4072505440006 1221.8278709152878 375.4962252573348z" fill="rgba(28, 83, 142, 0.4)" class="triangle-float1"></path>
        <path d="M134.89 66.7 a105.78 105.78 0 1 0 211.56 0 a105.78 105.78 0 1 0 -211.56 0z" fill="rgba(28, 83, 142, 0.4)" class="triangle-float3"></path>
        <path d="M1202.2129491116193 47.92846035347553L1111.5062307123549 26.987164353701555 1090.564934712581 117.6938827529659 1181.2716531118454 138.63517875273988z" fill="rgba(28, 83, 142, 0.4)" class="triangle-float1"></path>
        <path d="M1006.83 448.98 a116.99 116.99 0 1 0 233.98 0 a116.99 116.99 0 1 0 -233.98 0z" fill="rgba(28, 83, 142, 0.4)" class="triangle-float3"></path>
        <path d="M916.3010013310706 83.66956542872451L925.3694633700203 213.3546145094079 1055.0545124507037 204.2861524704581 1045.986050411754 74.60110338977472z" fill="rgba(28, 83, 142, 0.4)" class="triangle-float1"></path>
        <path d="M915.39 261.83 a96.93 96.93 0 1 0 193.86 0 a96.93 96.93 0 1 0 -193.86 0z" fill="rgba(28, 83, 142, 0.4)" class="triangle-float3"></path>
        <path d="M99.507,563.583C130.901,564.219,161.359,552.118,179.034,526.165C199.322,496.374,211.707,457.081,193.03,426.255C174.77,396.116,134.676,392.681,99.507,394.907C68.841,396.848,39.849,410.326,24.462,436.923C9.052,463.56,9.685,496.578,25.371,523.053C40.758,549.023,69.327,562.972,99.507,563.583" fill="rgba(28, 83, 142, 0.4)" class="triangle-float2"></path>
        <path d="M1297.01 221.99 a122.42 122.42 0 1 0 244.84 0 a122.42 122.42 0 1 0 -244.84 0z" fill="rgba(28, 83, 142, 0.4)" class="triangle-float3"></path>
        <path d="M1160.082,353.934C1178.879,354.922,1197.079,344.859,1206.146,328.364C1214.924,312.394,1211.738,292.974,1202.085,277.518C1193.03,263.019,1177.176,254.592,1160.082,254.604C1143.011,254.616,1126.453,262.645,1118.185,277.58C1110.143,292.108,1113.719,309.368,1121.707,323.925C1130.079,339.183,1142.702,353.02,1160.082,353.934" fill="rgba(28, 83, 142, 0.4)" class="triangle-float2"></path>
        <path d="M1185.07 223.52 a143.12 143.12 0 1 0 286.24 0 a143.12 143.12 0 1 0 -286.24 0z" fill="rgba(28, 83, 142, 0.4)" class="triangle-float1"></path>
        <path d="M714.621,602.361C756.733,599.692,789.132,568.651,809.097,531.476C827.854,496.551,830.993,455.496,812.259,420.559C792.43,383.58,756.557,356.707,714.621,355.285C670.235,353.78,628.226,375.794,604.795,413.522C579.981,453.477,573.198,504.272,596.843,544.929C620.378,585.397,667.901,605.322,714.621,602.361" fill="rgba(28, 83, 142, 0.4)" class="triangle-float2"></path>
        <path d="M611 191.59 a173.74 173.74 0 1 0 347.48 0 a173.74 173.74 0 1 0 -347.48 0z" fill="rgba(28, 83, 142, 0.4)" class="triangle-float2"></path>
        <path d="M1232.742,147.368C1266.769,148.744,1298.385,127.827,1314.028,97.578C1328.578,69.442,1321.349,36.014,1304.051,9.478C1288.414,-14.51,1261.343,-25.729,1232.742,-27.117C1200.892,-28.663,1164.668,-25.472,1148.345,1.921C1131.783,29.716,1145.861,63.448,1162.1,91.433C1178.257,119.277,1200.576,146.067,1232.742,147.368" fill="rgba(28, 83, 142, 0.4)" class="triangle-float3"></path>
        <path d="M1027.2311575032995 210.997202153403L1184.5316869872902 216.49025768444338 1190.0247425183306 59.189728200452635 1032.72421303434 53.696672669412266z" fill="rgba(28, 83, 142, 0.4)" class="triangle-float3"></path>
        <path d="M992.6116608670869 33.46912209905926L1034.6825717942318 123.69048173446225 1082.83302050249-8.601788828085489z" fill="rgba(28, 83, 142, 0.4)" class="triangle-float2"></path>
        <path d="M569.495,484.595C604.157,482.827,631.223,457.525,647.717,426.988C663.296,398.143,664.626,364.674,650.153,335.259C633.589,301.596,607.011,268.218,569.495,268.015C531.757,267.811,505.67,301.405,487.312,334.378C469.59,366.21,458.629,403.778,476.115,435.74C494.187,468.772,531.892,486.513,569.495,484.595" fill="rgba(28, 83, 142, 0.4)" class="triangle-float2"></path>
    </g>
    <defs>
        <mask id="SvgjsMask1023">
            <rect width="1440" height="560" fill="#ffffff"></rect>
        </mask>
        <style>
            @keyframes float1 {
                0%{transform: translate(0, 0)}
                50%{transform: translate(-10px, 0)}
                100%{transform: translate(0, 0)}
            }

            .triangle-float1 {
                animation: float1 5s infinite;
            }

            @keyframes float2 {
                0%{transform: translate(0, 0)}
                50%{transform: translate(-5px, -5px)}
                100%{transform: translate(0, 0)}
            }

            .triangle-float2 {
                animation: float2 4s infinite;
            }

            @keyframes float3 {
                0%{transform: translate(0, 0)}
                50%{transform: translate(0, -10px)}
                100%{transform: translate(0, 0)}
            }

            .triangle-float3 {
                animation: float3 6s infinite;
            }
        </style>
    </defs>
</svg>